<svg width="1549" height="1549" viewBox="0 0 1549 1549" fill="none" xmlns="http://www.w3.org/2000/svg">
<rect width="1549" height="1549" rx="165" fill="#F2553C"/>
<path d="M1401.2 1309.55L1309.55 1401.2C1297.46 1413.22 1281.1 1419.97 1264.05 1419.97C1247 1419.97 1230.64 1413.22 1218.55 1401.2L451.792 635.735C430.805 641.823 409.099 645.079 387.25 645.417C346.157 645.387 305.664 635.549 269.138 616.719C232.613 597.889 201.11 570.612 177.248 537.156C153.387 503.7 137.857 465.031 131.949 424.365C126.042 383.698 129.927 342.208 143.283 303.346L307.218 467.282L341.425 433.075L433.075 341.425L467.282 307.218L303.346 143.282C342.209 129.927 383.698 126.042 424.365 131.949C465.031 137.857 503.7 153.387 537.156 177.248C570.613 201.11 597.889 232.613 616.719 269.138C635.549 305.664 645.387 346.156 645.417 387.25C645.079 409.099 641.823 430.805 635.735 451.792L1401.2 1218.55C1413.22 1230.64 1419.97 1247 1419.97 1264.05C1419.97 1281.1 1413.22 1297.46 1401.2 1309.55ZM147.8 1218.55C135.78 1230.64 129.032 1247 129.032 1264.05C129.032 1281.1 135.78 1297.46 147.8 1309.55L239.45 1401.2C251.542 1413.22 267.901 1419.97 284.952 1419.97C302.003 1419.97 318.361 1413.22 330.453 1401.2L683.496 1048.8L500.843 866.149M1290.83 129.083L1032.67 258.167V387.25L892.611 527.305L1021.69 656.389L1161.75 516.333H1290.83L1419.92 258.167L1290.83 129.083Z" fill="white"/>
<line x1="308.407" y1="1243.62" x2="494.338" y2="1057.69" stroke="#F2553C" stroke-width="48"/>
<circle cx="1258.17" cy="1266.96" r="79.7741" fill="#F2553C"/>
</svg>
